<svg width="525" height="109" viewBox="0 0 525 109" fill="none" xmlns="http://www.w3.org/2000/svg">
<path d="M62.7362 43.9336H48.8931C48.6403 42.1426 48.1241 40.5518 47.3445 39.1612C46.5649 37.7495 45.564 36.5485 44.342 35.5582C43.1199 34.5679 41.7082 33.8094 40.1069 33.2827C38.5266 32.7559 36.8094 32.4925 34.9553 32.4925C31.6051 32.4925 28.6869 33.3248 26.2006 34.9893C23.7144 36.6328 21.7865 39.0348 20.4169 42.1953C19.0473 45.3348 18.3626 49.1484 18.3626 53.6364C18.3626 58.2507 19.0473 62.1276 20.4169 65.267C21.8075 68.4065 23.746 70.7769 26.2322 72.3782C28.7185 73.9795 31.5946 74.7802 34.8604 74.7802C36.6935 74.7802 38.3897 74.5379 39.9489 74.0533C41.5291 73.5687 42.9303 72.8628 44.1523 71.9357C45.3744 70.9876 46.3858 69.8393 47.1864 68.4908C48.0082 67.1423 48.5771 65.6042 48.8931 63.8764L62.7362 63.9396C62.378 66.9105 61.4825 69.776 60.0497 72.5362C58.638 75.2753 56.7312 77.73 54.3292 79.9002C51.9483 82.0494 49.1038 83.756 45.7958 85.0202C42.5089 86.2634 38.79 86.8849 34.6392 86.8849C28.866 86.8849 23.7038 85.5786 19.1527 82.9659C14.6226 80.3532 11.0407 76.5711 8.40696 71.6197C5.79427 66.6682 4.48793 60.6738 4.48793 53.6364C4.48793 46.5779 5.81534 40.5729 8.47017 35.6214C11.125 30.67 14.728 26.8984 19.2791 24.3068C23.8303 21.6941 28.9503 20.3878 34.6392 20.3878C38.3897 20.3878 41.8662 20.9145 45.0689 21.968C48.2926 23.0215 51.1476 24.5597 53.6339 26.5824C56.1201 28.584 58.1429 31.0387 59.7021 33.9464C61.2823 36.854 62.2937 40.1831 62.7362 43.9336ZM82.4893 86H67.8246L90.1694 21.2727H107.805L130.118 86H115.453L99.2401 36.0639H98.7344L82.4893 86ZM81.5728 60.5579H116.212V71.2404H81.5728V60.5579ZM137.909 86V21.2727H163.446C168.334 21.2727 172.506 22.1471 175.961 23.896C179.438 25.6237 182.082 28.0784 183.894 31.2599C185.727 34.4205 186.644 38.1393 186.644 42.4165C186.644 46.7148 185.717 50.4126 183.863 53.5099C182.009 56.5862 179.322 58.946 175.803 60.5895C172.306 62.233 168.071 63.0547 163.098 63.0547H146V52.0561H160.886C163.499 52.0561 165.669 51.6979 167.396 50.9815C169.124 50.2652 170.41 49.1906 171.252 47.7578C172.116 46.325 172.548 44.5446 172.548 42.4165C172.548 40.2674 172.116 38.4554 171.252 36.9805C170.41 35.5056 169.114 34.3888 167.365 33.6303C165.637 32.8507 163.456 32.4609 160.823 32.4609H151.594V86H137.909ZM172.864 56.544L188.951 86H173.844L158.105 56.544H172.864Z" fill="white"/>
<path d="M231.428 39.8881C231.176 37.3387 230.09 35.3581 228.173 33.9464C226.256 32.5347 223.654 31.8288 220.367 31.8288C218.133 31.8288 216.247 32.1449 214.709 32.777C213.171 33.388 211.991 34.2414 211.17 35.337C210.369 36.4326 209.969 37.6758 209.969 39.0664C209.926 40.2253 210.169 41.2366 210.695 42.1005C211.243 42.9644 211.991 43.7124 212.939 44.3445C213.888 44.9555 214.983 45.4928 216.226 45.9563C217.47 46.3988 218.797 46.7781 220.209 47.0941L226.024 48.4847C228.847 49.1168 231.439 49.9596 233.799 51.0131C236.159 52.0666 238.202 53.3625 239.93 54.9006C241.658 56.4387 242.996 58.2507 243.944 60.3366C244.913 62.4226 245.408 64.814 245.43 67.511C245.408 71.4722 244.397 74.9066 242.395 77.8143C240.415 80.7009 237.549 82.9448 233.799 84.5462C230.069 86.1264 225.571 86.9165 220.303 86.9165C215.078 86.9165 210.527 86.1159 206.65 84.5146C202.794 82.9132 199.781 80.5429 197.611 77.4034C195.462 74.2429 194.335 70.3344 194.229 65.6779H207.472C207.619 67.8481 208.241 69.6602 209.336 71.114C210.453 72.5468 211.939 73.6319 213.793 74.3693C215.668 75.0857 217.786 75.4439 220.145 75.4439C222.463 75.4439 224.475 75.1068 226.182 74.4325C227.91 73.7583 229.248 72.8207 230.196 71.6197C231.144 70.4187 231.618 69.0386 231.618 67.4794C231.618 66.0256 231.186 64.8035 230.322 63.8132C229.479 62.8229 228.236 61.9801 226.593 61.2848C224.97 60.5895 222.979 59.9574 220.619 59.3885L213.572 57.6186C208.114 56.2912 203.806 54.2158 200.645 51.3924C197.485 48.569 195.915 44.7659 195.936 39.983C195.915 36.0639 196.958 32.64 199.065 29.7113C201.193 26.7826 204.111 24.4964 207.819 22.853C211.528 21.2095 215.742 20.3878 220.461 20.3878C225.265 20.3878 229.458 21.2095 233.04 22.853C236.643 24.4964 239.446 26.7826 241.447 29.7113C243.449 32.64 244.481 36.0323 244.545 39.8881H231.428ZM264.314 86H249.649L271.994 21.2727H289.629L311.942 86H297.278L281.064 36.0639H280.559L264.314 86ZM263.397 60.5579H298.036V71.2404H263.397V60.5579ZM319.733 86V21.2727H333.418V74.717H361.167V86H319.733ZM370.23 86V21.2727H413.845V32.5558H383.915V47.979H411.601V59.2621H383.915V74.717H413.972V86H370.23Z" fill="#CC4343"/>
<mask id="mask0_2_74" style="mask-type:alpha" maskUnits="userSpaceOnUse" x="430" y="7" width="95" height="95">
<path d="M441.014 77.9058L441.678 77.3586C459.559 62.6062 478.685 49.4302 498.841 37.9783V37.9783" stroke="#CC4343" stroke-width="3" stroke-linejoin="bevel" stroke-dasharray="10 10"/>
<path d="M525 54.4235C525 80.6148 503.734 101.847 477.5 101.847C414.732 106.928 603.036 -16.7117 430 54.4235C430 28.2322 451.266 7 477.5 7C503.734 7 525 28.2322 525 54.4235Z" fill="#CC4343"/>
</mask>
<g mask="url(#mask0_2_74)">
<path d="M418 57C418 71.5869 424.058 85.5764 434.841 95.8909C445.625 106.205 460.25 112 475.5 112C490.75 112 505.375 106.205 516.159 95.8909C526.942 85.5764 533 71.5869 533 57L475.5 57L418 57Z" fill="#EBB90A"/>
<path d="M533 57C533 49.7773 531.513 42.6253 528.623 35.9524C525.733 29.2795 521.498 23.2163 516.159 18.1091C510.819 13.0019 504.481 8.95063 497.504 6.18663C490.528 3.42262 483.051 2 475.5 2C467.949 2 460.472 3.42262 453.496 6.18663C446.519 8.95064 440.181 13.0019 434.841 18.1091C429.502 23.2164 425.267 29.2795 422.377 35.9524C419.487 42.6253 418 49.7773 418 57L475.5 57H533Z" fill="#3A48C6"/>
</g>
</svg>
