<svg width="512" height="512" viewBox="0 0 512 512" fill="none" xmlns="http://www.w3.org/2000/svg">
<mask id="mask0_2_87" style="mask-type:alpha" maskUnits="userSpaceOnUse" x="0" y="0" width="512" height="512">
<path fill-rule="evenodd" clip-rule="evenodd" d="M295.721 223.098C278.165 234.104 260.771 245.361 243.544 256.866C239.135 259.811 233.174 258.624 230.229 254.215C227.285 249.806 228.472 243.844 232.881 240.9C250.261 229.292 267.81 217.935 285.522 206.831C290.014 204.015 295.939 205.373 298.755 209.865C301.571 214.358 300.213 220.282 295.721 223.098ZM194.63 278.739C197.701 283.062 196.686 289.055 192.364 292.125C175.476 304.123 158.76 316.364 142.221 328.846C137.99 332.04 131.97 331.199 128.776 326.967C125.582 322.735 126.423 316.715 130.655 313.521C147.341 300.928 164.206 288.577 181.244 276.473C185.566 273.402 191.56 274.417 194.63 278.739ZM335.709 187.435C333.024 182.863 334.553 176.98 339.124 174.295C348.134 169.002 357.184 163.774 366.272 158.61C370.882 155.991 376.742 157.604 379.361 162.214C381.981 166.824 380.367 172.684 375.757 175.303C366.749 180.421 357.78 185.604 348.849 190.85C344.278 193.535 338.395 192.006 335.709 187.435ZM94.6503 353.504C97.965 357.642 97.2976 363.683 93.1596 366.998C85.076 373.473 77.038 380.008 69.0464 386.601L68.1527 387.338C67.8502 387.588 67.537 387.816 67.2149 388.022C66.951 388.299 66.6677 388.563 66.3652 388.813L65.4715 389.55L65.0587 389.05C61.4081 390.256 57.2321 389.187 54.6382 386.042C52.0442 382.898 51.7874 378.595 53.6657 375.24L53.2529 374.74L54.1466 374.003C54.4491 373.753 54.7623 373.525 55.0844 373.319C55.3483 373.042 55.6316 372.777 55.9341 372.528L56.8278 371.791C64.8907 365.139 73.0003 358.546 81.156 352.013C85.294 348.698 91.3356 349.366 94.6503 353.504Z" fill="#CC4343"/>
<path d="M512 255.588C512 396.745 397.385 511.175 256 511.175C-82.2857 538.56 932.571 -127.794 0 255.588C0 114.431 114.615 0 256 0C397.385 0 512 114.431 512 255.588Z" fill="#CC4343"/>
</mask>
<g mask="url(#mask0_2_87)">
<path d="M-64.6737 269.474C-64.6737 348.089 -32.0242 423.485 26.0924 479.075C84.2089 534.665 163.032 565.895 245.221 565.895C327.41 565.895 406.233 534.665 464.35 479.075C522.466 423.485 555.116 348.089 555.116 269.474L245.221 269.474L-64.6737 269.474Z" fill="#EBB90A"/>
<path d="M555.116 269.474C555.116 230.547 547.1 192.002 531.526 156.038C515.953 120.075 493.126 87.3976 464.35 59.8724C435.573 32.3471 401.411 10.5129 363.813 -4.38365C326.214 -19.2802 285.917 -26.9474 245.221 -26.9474C204.525 -26.9474 164.228 -19.2802 126.629 -4.38364C89.0313 10.5129 54.8688 32.3471 26.0924 59.8724C-2.68401 87.3976 -25.5107 120.075 -41.0844 156.038C-56.658 192.002 -64.6737 230.547 -64.6737 269.474L245.221 269.474H555.116Z" fill="#3A48C6"/>
</g>
</svg>
