<svg width="80" height="80" viewBox="0 0 80 80" fill="none" xmlns="http://www.w3.org/2000/svg">
<mask id="mask0_2_87" style="mask-type:alpha" maskUnits="userSpaceOnUse" x="0" y="0" width="80" height="80">
<path d="M9.27535 59.7101L9.83393 59.2493C24.8922 46.8262 40.998 35.7307 57.971 26.0869V26.0869" stroke="#CC4343" stroke-width="3" stroke-linejoin="bevel" stroke-dasharray="10 10"/>
<path d="M80 39.9356C80 61.9914 62.0914 79.8712 40 79.8712C-12.8571 84.15 145.714 -19.9678 0 39.9356C0 17.8798 17.9086 0 40 0C62.0914 0 80 17.8798 80 39.9356Z" fill="#CC4343"/>
</mask>
<g mask="url(#mask0_2_87)">
<path d="M-10.1053 42.1053C-10.1053 54.389 -5.00378 66.1696 4.07693 74.8555C13.1576 83.5414 25.4737 88.4211 38.3158 88.4211C51.1578 88.4211 63.4739 83.5414 72.5546 74.8555C81.6354 66.1696 86.7368 54.389 86.7368 42.1053L38.3158 42.1053L-10.1053 42.1053Z" fill="#EBB90A"/>
<path d="M86.7368 42.1053C86.7368 36.023 85.4844 30.0003 83.051 24.381C80.6176 18.7617 77.051 13.6559 72.5546 9.35506C68.0583 5.05424 62.7204 1.64264 56.8457 -0.684946C50.971 -3.01253 44.6745 -4.21053 38.3158 -4.21053C31.957 -4.21053 25.6606 -3.01253 19.7859 -0.684945C13.9111 1.64264 8.57324 5.05424 4.07693 9.35506C-0.419378 13.6559 -3.98605 18.7617 -6.41943 24.381C-8.85282 30.0003 -10.1053 36.023 -10.1053 42.1053L38.3158 42.1053H86.7368Z" fill="#3A48C6"/>
</g>
</svg>
