<svg width="192" height="192" viewBox="0 0 192 192" fill="none" xmlns="http://www.w3.org/2000/svg">
<mask id="mask0_2_87" style="mask-type:alpha" maskUnits="userSpaceOnUse" x="0" y="0" width="192" height="192">
<path fill-rule="evenodd" clip-rule="evenodd" d="M110.895 83.6619C104.312 87.789 97.7892 92.0105 91.3291 96.3249C89.6757 97.4291 87.4402 96.9839 86.3359 95.3305C85.2317 93.6771 85.6769 91.4416 87.3303 90.3374C93.848 85.9845 100.429 81.7255 107.071 77.5616C108.755 76.5055 110.977 77.015 112.033 78.6995C113.089 80.3841 112.58 82.6058 110.895 83.6619ZM72.9863 104.527C74.1377 106.148 73.7572 108.396 72.1364 109.547C65.8034 114.046 59.5349 118.637 53.3331 123.317C51.7461 124.515 49.4886 124.2 48.2909 122.613C47.0932 121.026 47.4087 118.768 48.9957 117.57C55.2528 112.848 61.5771 108.216 67.9666 103.677C69.5874 102.526 71.8348 102.906 72.9863 104.527ZM125.891 70.288C124.884 68.5736 125.457 66.3675 127.172 65.3605C130.55 63.3757 133.944 61.4151 137.352 59.4787C139.081 58.4965 141.278 59.1016 142.26 60.8303C143.243 62.559 142.638 64.7566 140.909 65.7388C137.531 67.658 134.167 69.6014 130.818 71.5686C129.104 72.5757 126.898 72.0023 125.891 70.288ZM35.4939 132.564C36.7369 134.116 36.4866 136.381 34.9349 137.624C31.9035 140.053 28.8893 142.503 25.8924 144.975L25.5572 145.252C25.4438 145.345 25.3264 145.431 25.2056 145.508C25.1066 145.612 25.0004 145.711 24.887 145.805L24.5518 146.081L24.397 145.894C23.028 146.346 21.4621 145.945 20.4893 144.766C19.5166 143.587 19.4203 141.973 20.1246 140.715L19.9698 140.527L20.305 140.251C20.4184 140.157 20.5359 140.072 20.6567 139.994C20.7556 139.891 20.8619 139.792 20.9753 139.698L21.3104 139.421C24.334 136.927 27.3751 134.455 30.4335 132.005C31.9852 130.762 34.2509 131.012 35.4939 132.564Z" fill="#CC4343"/>
<path d="M192 95.8454C192 148.779 149.019 191.691 96 191.691C-30.8571 201.96 349.714 -47.9227 0 95.8454C0 42.9114 42.9807 0 96 0C149.019 0 192 42.9114 192 95.8454Z" fill="#CC4343"/>
</mask>
<g mask="url(#mask0_2_87)">
<path d="M-24.2526 101.053C-24.2526 130.534 -12.0091 158.807 9.78464 179.653C31.5783 200.499 61.1369 212.211 91.9579 212.211C122.779 212.211 152.337 200.499 174.131 179.653C195.925 158.807 208.168 130.534 208.168 101.053L91.9579 101.053L-24.2526 101.053Z" fill="#EBB90A"/>
<path d="M208.168 101.053C208.168 86.4552 205.163 72.0007 199.322 58.5144C193.482 45.0281 184.922 32.7741 174.131 22.4521C163.34 12.1302 150.529 3.94234 136.43 -1.64387C122.33 -7.23007 107.219 -10.1053 91.9579 -10.1053C76.6969 -10.1053 61.5854 -7.23007 47.486 -1.64386C33.3867 3.94235 20.5758 12.1302 9.78464 22.4521C-1.00651 32.7741 -9.56651 45.0281 -15.4066 58.5144C-21.2468 72.0007 -24.2526 86.4552 -24.2526 101.053L91.9579 101.053H208.168Z" fill="#3A48C6"/>
</g>
</svg>
